<?xml version="1.0" encoding="utf-8"?>
<!-- Generator: Adobe Illustrator 23.0.3, SVG Export Plug-In . SVG Version: 6.00 Build 0)  -->
<svg version="1.1" id="Calque_1" xmlns="http://www.w3.org/2000/svg" xmlns:xlink="http://www.w3.org/1999/xlink" x="0px" y="0px"
	 viewBox="0 0 512 512" style="enable-background:new 0 0 512 512;" xml:space="preserve">
<style type="text/css">
	.st0{fill:#463C3B;}
	.st1{fill:#D3921F;}
</style>
<g>
	<path class="st0" d="M405.6,409.7l-16.8-57.3c9.8-13.5,17.7-28.7,23-44.9L506,256l-94.1-51.5c-5.4-16.2-13.2-31.3-23-44.9
		l16.8-57.3l-58.5,17.1c-12.2-8.1-25.5-14.7-39.6-19.3L256,6l-51.5,94.1c-14.2,4.7-27.6,11.3-39.8,19.5l-1.2,0.4l-60.1-17.6
		l17.6,60.1l-0.1,0.3c-8.8,12.7-15.8,26.7-20.8,41.7L6,256l94.1,51.5c4.9,15,12,29,20.8,41.7l0.1,0.3l-17.6,60.1l60.1-17.6l1.2,0.4
		c12.2,8.2,25.6,14.8,39.8,19.5L256,506l51.5-94.1c14.2-4.7,27.5-11.2,39.6-19.3L405.6,409.7z M271.6,345.7
		c-11.1-20.1-8.4-42.7,6-50.7c14.4-7.9,35,1.9,46.1,21.9c11.1,20.1,8.4,42.7-6,50.7C303.3,375.5,282.7,365.7,271.6,345.7z
		 M259.2,316.8c0,0-10.5-12.3-27.9-24.5c-19.1-13.4-41.8-23.5-41.8-23.5l2.3-22c-0.5,0,19.2,6,28.4-7.7c8.1-12.1,2.6-27,2.6-27
		s2-0.5,4.7-0.5c2.1,0,3.2-1.7,3.2-1.7s2-0.1,3.2-1.8c1.4-2.2,2.9-3.7,2.9-3.7s9.7,12.6,24.2,12.2c16.6-0.5,22-20.3,21.7-19.9
		l19.8,9.8c0,0-3.5,24.6-2.4,47.9c1,21.1,5.8,36.6,5.8,36.6s-6.6-4.6-14.5-5.9c-7.9-1.2-17.7,2.8-17.7,2.8s-8.7,6.1-11.8,13.4
		C258.8,308.8,259.2,316.8,259.2,316.8z M229.5,161.2c9.9,17.9,9.4,37.2-1.1,43c-10.5,5.8-27.1-4-37-22c-9.9-17.9-9.4-37.2,1.1-43
		C203.1,133.4,219.6,143.2,229.5,161.2z M173.5,226c13.9,15.1,17.9,33.9,9.1,42.1c-8.8,8.1-27.2,2.5-41.1-12.6
		c-13.9-15.1-17.9-33.9-9.1-42.1C141.2,205.3,159.6,210.9,173.5,226z M287.4,127.9c11.6-3.1,25.4,10.4,30.7,30.1
		c5.4,19.8,0.3,38.3-11.3,41.5c-11.6,3.1-25.4-10.4-30.7-30.1C270.8,149.6,275.8,131.1,287.4,127.9z"/>
	<path class="st1" d="M273.8,288c0,0,9.8-4.1,17.7-2.8c7.9,1.2,14.5,5.9,14.5,5.9s-4.8-15.5-5.8-36.6c-1.1-23.3,2.4-47.9,2.4-47.9
		l-19.8-9.8c0.3-0.4-5.1,19.4-21.7,19.9c-14.6,0.4-24.2-12.2-24.2-12.2s-1.5,1.5-2.9,3.7c-1.1,1.7-3.2,1.8-3.2,1.8s-1.1,1.7-3.2,1.7
		c-2.6,0-4.7,0.5-4.7,0.5s5.5,14.9-2.6,27c-9.3,13.8-28.9,7.7-28.4,7.7l-2.3,22c0,0,22.7,10.1,41.8,23.5
		c17.3,12.1,27.9,24.5,27.9,24.5s-0.4-8,2.8-15.4C265.1,294.1,273.8,288,273.8,288z"/>
	
		<ellipse transform="matrix(0.8757 -0.4829 0.4829 0.8757 -56.7367 122.9809)" class="st1" cx="210.5" cy="171.7" rx="21.8" ry="37.1"/>
	
		<ellipse transform="matrix(0.8757 -0.4829 0.4829 0.8757 -122.9829 184.9496)" class="st1" cx="297.7" cy="331.3" rx="29.7" ry="41.5"/>
	
		<ellipse transform="matrix(0.9648 -0.2629 0.2629 0.9648 -32.5887 83.8796)" class="st1" cx="297.2" cy="163.7" rx="21.8" ry="37.1"/>
	
		<ellipse transform="matrix(0.7371 -0.6758 0.6758 0.7371 -121.3111 169.7046)" class="st1" cx="157.5" cy="240.8" rx="21.8" ry="37.1"/>
</g>
</svg>
